<svg xmlns="http://www.w3.org/2000/svg" width="108.574" height="26" viewBox="0 0 108.574 26">
  <g id="Logo" transform="translate(0.964 0.957)">
    <circle id="Ellipse_1757" data-name="Ellipse 1757" cx="1.043" cy="1.043" r="1.043" transform="translate(10.848 -0.478) rotate(-13.28)" fill="#72bf00"/>
    <circle id="Ellipse_1758" data-name="Ellipse 1758" cx="1.043" cy="1.043" r="1.043" transform="translate(10.846 23.012) rotate(-13.28)" fill="#72bf00"/>
    <circle id="Ellipse_1759" data-name="Ellipse 1759" cx="1.043" cy="1.043" r="1.043" transform="translate(18.896 3.768) rotate(-45)" fill="#72bf00"/>
    <circle id="Ellipse_1760" data-name="Ellipse 1760" cx="1.043" cy="1.043" r="1.043" transform="translate(19.114 19.552) rotate(-13.28)" fill="#72bf00"/>
    <circle id="Ellipse_1761" data-name="Ellipse 1761" cx="1.043" cy="1.043" r="1.043" transform="translate(2.284 20.326) rotate(-45)" fill="#72bf00"/>
    <circle id="Ellipse_1762" data-name="Ellipse 1762" cx="1.043" cy="1.043" r="1.043" transform="translate(-0.964 11.284) rotate(-13.28)" fill="#72bf00"/>
    <circle id="Ellipse_1763" data-name="Ellipse 1763" cx="1.043" cy="1.043" r="1.043" transform="translate(22.349 12.061) rotate(-45)" fill="#72bf00"/>
    <circle id="Ellipse_1764" data-name="Ellipse 1764" cx="1.043" cy="1.043" r="1.043" transform="translate(2.285 3.739) rotate(-45)" fill="#72bf00"/>
    <path id="Path_59397" data-name="Path 59397" d="M65.853,25.15A1.043,1.043,0,0,0,64.81,26.2V30.35h0v.015a1.043,1.043,0,1,0,2.086,0v-.028h0V26.182A1.043,1.043,0,0,0,65.853,25.15Z" transform="translate(-53.75 -22.428)" fill="#72bf00"/>
    <path id="Path_59398" data-name="Path 59398" d="M65.853,82.4a1.041,1.041,0,0,0-1.043,1.043V87.6h0v.028a1.043,1.043,0,1,0,2.086,0V87.6h0V83.443A1.041,1.041,0,0,0,65.853,82.4Z" transform="translate(-53.75 -67.26)" fill="#72bf00"/>
    <path id="Path_59399" data-name="Path 59399" d="M33.962,63.32H27.7a1.043,1.043,0,1,0,0,2.086h6.259a1.043,1.043,0,1,0,0-2.086Z" transform="translate(-23.942 -52.302)" fill="#72bf00"/>
    <path id="Path_59400" data-name="Path 59400" d="M81.662,65.406a1.043,1.043,0,1,0,0-2.086H75.4a1.043,1.043,0,1,0,0,2.086Z" transform="translate(-61.211 -52.302)" fill="#72bf00"/>
    <path id="Path_59401" data-name="Path 59401" d="M84.931,21.513a1.041,1.041,0,0,0,1.043-1.045v-.028h0V13.574a1.045,1.045,0,1,0-2.088,0v6.866h0v.028a1.043,1.043,0,0,0,1.045,1.043Z" transform="translate(-68.654 -12.529)" fill="#72bf00"/>
    <path id="Path_59402" data-name="Path 59402" d="M46.649,82.4a1.041,1.041,0,0,0-1.043,1.043v6.869h0v.026a1.045,1.045,0,1,0,2.088,0v-.026h0V83.443A1.043,1.043,0,0,0,46.649,82.4Z" transform="translate(-38.745 -67.26)" fill="#72bf00"/>
    <path id="Path_59403" data-name="Path 59403" d="M15.094,46.194h6.891a1.045,1.045,0,0,0,0-2.088H15.094a1.045,1.045,0,1,0,0,2.088Z" transform="translate(-14.052 -37.271)" fill="#72bf00"/>
    <path id="Path_59404" data-name="Path 59404" d="M91.838,82.4H84.943a1.043,1.043,0,1,0,0,2.086h6.895a1.043,1.043,0,1,0,0-2.086Z" transform="translate(-67.956 -67.227)" fill="#72bf00"/>
    <path id="Path_59405" data-name="Path 59405" d="M46.771,17.34A1.041,1.041,0,0,0,47.814,16.3v-.028h0V13.574a1.045,1.045,0,1,0-2.088,0v2.694h0V16.3a1.043,1.043,0,0,0,1.045,1.043Z" transform="translate(-38.838 -12.529)" fill="#72bf00"/>
    <path id="Path_59406" data-name="Path 59406" d="M17.811,84.474a1.045,1.045,0,0,0,0-2.088H15.095a1.045,1.045,0,1,0,0,2.088Z" transform="translate(-14.052 -67.215)" fill="#72bf00"/>
    <path id="Path_59407" data-name="Path 59407" d="M104.023,46.326h2.723a1.043,1.043,0,0,0,0-2.086h-2.723a1.043,1.043,0,1,0,0,2.086Z" transform="translate(-83.656 -37.376)" fill="#72bf00"/>
    <path id="Path_59408" data-name="Path 59408" d="M84.935,101.35a1.045,1.045,0,0,0-1.045,1.043v.028h0v2.7a1.045,1.045,0,0,0,2.088,0v-2.7h0v-.028A1.043,1.043,0,0,0,84.935,101.35Z" transform="translate(-68.657 -82.066)" fill="#72bf00"/>
    <path id="Path_59409" data-name="Path 59409" d="M180.079,35.332a4.69,4.69,0,0,1,4.57,3.475l.044.187,2.161-.282-.061-.23a6.883,6.883,0,0,0-6.72-5.122,7.181,7.181,0,0,0-7.332,7.513,7.619,7.619,0,0,0,2.132,5.471,7.275,7.275,0,0,0,5.2,2.063,6.824,6.824,0,0,0,6.7-4.887l.055-.217-2.11-.411-.053.189a4.786,4.786,0,0,1-4.592,3.352c-2.974,0-5.132-2.339-5.132-5.561S177.1,35.332,180.079,35.332Z" transform="translate(-138.237 -28.842)" fill="#fff"/>
    <path id="Path_59410" data-name="Path 59410" d="M250.278,51.66a5.528,5.528,0,0,0,0,11.056,5.528,5.528,0,0,0,0-11.056Zm0,9.167a3.644,3.644,0,1,1,3.455-3.648A3.446,3.446,0,0,1,250.278,60.827Z" transform="translate(-194.587 -43.205)" fill="#fff"/>
    <path id="Path_59411" data-name="Path 59411" d="M352.561,34.065a1.168,1.168,0,0,0-1.225,1.19,1.216,1.216,0,1,0,2.429,0,1.159,1.159,0,0,0-1.2-1.19Z" transform="translate(-277.916 -29.416)" fill="#fff"/>
    <rect id="Rectangle_2997" data-name="Rectangle 2997" width="2.062" height="10.37" transform="translate(73.608 8.897)" fill="#fff"/>
    <path id="Path_59412" data-name="Path 59412" d="M378.593,38.518a4.425,4.425,0,0,0-3.621,1.633V34.8H372.91V49.2h2.062V47.9a4.313,4.313,0,0,0,3.6,1.685,5.535,5.535,0,0,0,.02-11.063Zm-.2,1.892a3.648,3.648,0,1,1-3.484,3.633A3.476,3.476,0,0,1,378.4,40.41Z" transform="translate(-294.82 -29.967)" fill="#fff"/>
    <path id="Path_59413" data-name="Path 59413" d="M302.57,47.255V34.8h2.062V46.743c0,.6.37.7.855.7h.656v1.737h-1.117C303.727,49.2,302.57,48.756,302.57,47.255Z" transform="translate(-239.775 -29.967)" fill="#fff"/>
    <path id="Path_59414" data-name="Path 59414" d="M326.45,47.255V34.8h2.058V46.743c0,.6.372.7.857.7h.656v1.737H328.9C327.607,49.2,326.45,48.756,326.45,47.255Z" transform="translate(-258.454 -29.967)" fill="#fff"/>
    <path id="Path_59415" data-name="Path 59415" d="M435.285,53.205a2.9,2.9,0,0,0-2.432,1.194V53.306H430.83V63.678h2.062V58.113c0-1.848.746-2.93,2.3-2.93a3.407,3.407,0,0,1,1.47.247V53.461A2.8,2.8,0,0,0,435.285,53.205Z" transform="translate(-340.154 -44.411)" fill="#fff"/>
    <path id="Path_59416" data-name="Path 59416" d="M471.1,61.071c-.472,0-.831-.1-.851-.656V56.026c0-2.39-1.736-3.936-4.424-3.936-2.642,0-4.345,1.437-4.345,3.658v.219h2.084v-.219A1.517,1.517,0,0,1,464,54.609,2.524,2.524,0,0,1,465.817,54c1.489,0,2.381.741,2.381,1.988v.2l-2.563.313c-2.948.335-4.636,1.644-4.636,3.6,0,1.824,1.515,3.048,3.774,3.048A4.1,4.1,0,0,0,468.2,61.6h.109c.315.936,1.281,1.233,2.342,1.233h.687V61.08Zm-6.1.286c-1.22,0-1.948-.485-1.948-1.3,0-1.176,1.426-1.6,2.624-1.749l2.515-.289v.656C468.186,60.249,466.874,61.358,465,61.358Z" transform="translate(-363.727 -43.541)" fill="#fff"/>
  </g>
</svg>
